<svg xmlns="http://www.w3.org/2000/svg" xmlns:svg="http://www.w3.org/2000/svg" xmlns:xlink="http://www.w3.org/1999/xlink" id="svg2424" width="208.5" height="203.5" version="1.0"><defs id="defs2426"><linearGradient id="path1082_2_" x1="112.499" x2="112.499" y1="6.137" y2="129.347" gradientTransform="translate(287,-83)" gradientUnits="userSpaceOnUse"><stop id="stop193" offset="0" style="stop-color:#fff;stop-opacity:0"/><stop id="stop195" offset="1" style="stop-color:#fff;stop-opacity:.27450982"/><midPointStop id="midPointStop197" offset="0" style="stop-color:#fff"/><midPointStop id="midPointStop199" offset=".5" style="stop-color:#fff"/><midPointStop id="midPointStop201" offset="1" style="stop-color:#000"/></linearGradient><linearGradient id="linearGradient3388"><stop style="stop-color:#000;stop-opacity:0" id="stop3390" offset="0"/><stop style="stop-color:#000;stop-opacity:.37113401" id="stop3392" offset="1"/></linearGradient><linearGradient id="linearGradient4346"><stop style="stop-color:#00bdec;stop-opacity:1" id="stop4348" offset="0"/><stop style="stop-color:#40bfde;stop-opacity:1" id="stop4350" offset="1"/></linearGradient><linearGradient id="linearGradient4352" x1="400.614" x2="616.486" y1="634.151" y2="666.978" gradientUnits="userSpaceOnUse" xlink:href="#linearGradient4346"/><linearGradient id="linearGradient5323"><stop style="stop-color:#6e6e6e;stop-opacity:1" id="stop5325" offset="0"/><stop style="stop-color:#4d4d4d;stop-opacity:1" id="stop5327" offset="1"/></linearGradient><linearGradient id="linearGradient5329" x1="291.836" x2="650.814" y1="238.082" y2="348.969" gradientUnits="userSpaceOnUse" xlink:href="#linearGradient5323"/><linearGradient id="linearGradient2231" x1="490.723" x2="490.723" y1="237.724" y2="183.964" gradientTransform="matrix(0.6551957,0,0,0.6551957,-113.28394,148.38658)" gradientUnits="userSpaceOnUse" xlink:href="#linearGradient3388"/><linearGradient id="linearGradient2261" x1="541.335" x2="606.912" y1="104.507" y2="303.14" gradientTransform="matrix(-0.6710118,0,0,0.6709741,706.10281,-117.5032)" gradientUnits="userSpaceOnUse" xlink:href="#path1082_2_"/><linearGradient id="linearGradient2198" x1="541.335" x2="606.912" y1="104.507" y2="303.14" gradientTransform="matrix(-0.6710118,0,0,0.6709741,901.93156,-57.609066)" gradientUnits="userSpaceOnUse" xlink:href="#path1082_2_"/><linearGradient id="linearGradient2493" x1="400.614" x2="616.486" y1="634.151" y2="666.978" gradientUnits="userSpaceOnUse" xlink:href="#linearGradient4346"/><linearGradient id="linearGradient2467" x1="400.614" x2="616.486" y1="634.151" y2="666.978" gradientUnits="userSpaceOnUse" xlink:href="#linearGradient4346"/><linearGradient id="linearGradient2461"><stop id="stop2463" offset="0" style="stop-color:#26a7e8;stop-opacity:1"/><stop id="stop2465" offset="1" style="stop-color:#3ab0ea;stop-opacity:1"/></linearGradient><linearGradient id="linearGradient2454"><stop id="stop2456" offset="0" style="stop-color:#000;stop-opacity:0"/><stop id="stop2458" offset="1" style="stop-color:#000;stop-opacity:.37113401"/></linearGradient><linearGradient id="linearGradient2544" x1="541.335" x2="606.912" y1="104.507" y2="303.14" gradientTransform="matrix(-0.3937741,0,0,0.393752,357.51969,122.00151)" gradientUnits="userSpaceOnUse" xlink:href="#path1082_2_"/><linearGradient id="linearGradient2441" x1="112.499" x2="112.499" y1="6.137" y2="129.347" gradientTransform="translate(287,-83)" gradientUnits="userSpaceOnUse"><stop style="stop-color:#fff;stop-opacity:0" id="stop2443" offset="0"/><stop style="stop-color:#fff;stop-opacity:.27450982" id="stop2445" offset="1"/><midPointStop style="stop-color:#fff" id="midPointStop2447" offset="0"/><midPointStop style="stop-color:#fff" id="midPointStop2449" offset=".5"/><midPointStop style="stop-color:#000" id="midPointStop2451" offset="1"/></linearGradient><linearGradient id="linearGradient3885" x1="291.836" x2="650.814" y1="238.082" y2="348.969" gradientUnits="userSpaceOnUse" xlink:href="#linearGradient5323"/><linearGradient id="linearGradient3887" x1="400.614" x2="616.486" y1="634.151" y2="666.978" gradientUnits="userSpaceOnUse" xlink:href="#linearGradient4346"/><linearGradient id="linearGradient3909" x1="291.836" x2="650.814" y1="238.082" y2="348.969" gradientUnits="userSpaceOnUse" xlink:href="#linearGradient5323"/><linearGradient id="linearGradient3919" x1="400.614" x2="616.486" y1="634.151" y2="666.978" gradientUnits="userSpaceOnUse" xlink:href="#linearGradient4346"/><clipPath id="clipPath3207" clipPathUnits="userSpaceOnUse"><rect style="opacity:.4;fill:#e2e2e2;fill-opacity:1;stroke:#000;stroke-opacity:1" id="rect3209" width="213" height="206" x="274.829" y="56.894"/></clipPath><clipPath id="clipPath3211" clipPathUnits="userSpaceOnUse"><rect style="opacity:.4;fill:#e2e2e2;fill-opacity:1;stroke:#000;stroke-width:1.41081345;stroke-opacity:1" id="rect3213" width="300.488" height="290.642" x="251.219" y="345.976" transform="matrix(1,0,-0.01414972,0.99989989,0,0)"/></clipPath><clipPath id="clipPath3215" clipPathUnits="userSpaceOnUse"><rect style="opacity:.4;fill:#e2e2e2;fill-opacity:1;stroke:#000;stroke-width:2.08857775;stroke-opacity:1" id="rect3217" width="444.867" height="430.247" x="437.55" y="-137.922"/></clipPath><clipPath id="clipPath3219" clipPathUnits="userSpaceOnUse"><rect style="opacity:.4;fill:#e2e2e2;fill-opacity:1;stroke:#000;stroke-opacity:1" id="rect3221" width="213" height="206" x="274.829" y="56.894"/></clipPath><clipPath id="clipPath3223" clipPathUnits="userSpaceOnUse"><rect style="opacity:.4;fill:#e2e2e2;fill-opacity:1;stroke:#000;stroke-opacity:1" id="rect3225" width="213" height="206" x="274.829" y="56.894"/></clipPath><clipPath id="clipPath3227" clipPathUnits="userSpaceOnUse"><rect style="opacity:.4;fill:#e2e2e2;fill-opacity:1;stroke:#000;stroke-opacity:1" id="rect3229" width="213" height="206" x="274.829" y="56.894"/></clipPath><clipPath id="clipPath3231" clipPathUnits="userSpaceOnUse"><rect style="opacity:.4;fill:#e2e2e2;fill-opacity:1;stroke:#000;stroke-opacity:1" id="rect3233" width="213" height="206" x="274.829" y="56.894"/></clipPath></defs><metadata id="metadata2429"/><g id="layer1" transform="translate(-276.32871,-57.394133)"><path id="path2518" d="m 381.05613,59.896151 c -8.76358,21.48594 -14.05542,35.559008 -23.81251,56.406249 5.98233,6.34126 13.32499,13.69092 25.25001,22.03125 -12.82058,-5.27559 -21.55832,-10.53499 -28.09376,-16.03125 -12.4872,26.05648 -32.07985,63.13344 -71.78125,134.46876 31.19835,-18.01136 55.3982,-29.10421 77.9375,-33.34375 -0.96715,-4.16178 -1.5061,-8.67823 -1.46875,-13.375 l 0.0313,-0.96875 c 0.49515,-19.99155 10.89945,-35.38759 23.21876,-34.34375 12.31931,1.04382 21.90137,18.13345 21.40624,38.125 -0.0931,3.75972 -0.50934,7.36393 -1.24999,10.71875 22.28963,4.36588 46.23183,15.42448 77,33.1875 -6.06956,-11.1745 -11.51389,-21.21901 -16.6875,-30.8125 -8.14928,-6.31625 -16.63014,-14.53818 -33.96875,-23.4375 11.91757,3.09669 20.47384,6.66278 27.125,10.65625 C 403.36077,115.24237 399.0944,102.22683 381.05613,59.896151 z" clip-path="url(#clipPath3231)" style="fill:#1793d1;fill-opacity:1;fill-rule:evenodd;stroke:none"/><path style="fill:#fff;fill-opacity:.16568047;fill-rule:evenodd;stroke:none" id="path2522" d="M 436.47589,176.91624 C 393.80206,118.99555 383.91072,72.31324 381.40528,61.168126 404.16874,113.67293 404.01326,114.3168 436.47589,176.91624 z" clip-path="url(#clipPath3227)"/><path id="path2520" d="m 381.42247,60.769131 c -1.08977,2.679089 -2.14914,5.275932 -3.15625,7.750003 -1.12033,2.752098 -2.22239,5.392953 -3.28125,7.96875 -1.05878,2.575833 -2.0847,5.081382 -3.12501,7.562501 -1.04036,2.481234 -2.09136,4.938071 -3.15625,7.40625 -1.06482,2.468083 -2.14892,4.963411 -3.28125,7.5 -1.13233,2.536675 -2.28851,5.125735 -3.53125,7.812495 -1.24282,2.68679 -2.57262,5.45661 -3.96874,8.375 -0.18859,0.3942 -0.40192,0.85074 -0.59376,1.25 5.96626,6.31989 13.29003,13.6383 25.15625,21.93751 -12.79917,-5.26679 -21.53063,-10.51371 -28.0625,-16 -0.33956,0.69321 -0.61891,1.32139 -0.96875,2.03125 -0.75164,1.52522 -1.6038,3.23544 -2.40624,4.84375 -6.15917,12.55584 -14.01982,27.76447 -24.62501,47.59375 24.96756,-14.0677 51.92484,-34.34239 100.84375,-16.875 -2.45285,-4.64566 -4.72595,-8.99768 -6.84374,-13.09375 -2.11777,-4.0962 -4.07926,-7.93515 -5.90625,-11.5625 -1.82685,-3.62729 -3.51362,-7.04191 -5.09375,-10.28125 -1.58012,-3.23928 -3.06008,-6.3177 -4.4375,-9.25001 -1.37751,-2.93224 -2.65612,-5.73143 -3.875,-8.4375 -1.21898,-2.70603 -2.36416,-5.31437 -3.46876,-7.874995 -1.1047,-2.560756 -2.18443,-5.06648 -3.21875,-7.562501 -1.03439,-2.496093 -2.0231,-4.987587 -3.03125,-7.5 -0.34629,-0.862813 -0.71582,-1.753864 -1.0625,-2.625 -2.7736,-6.50749 -5.61686,-13.241566 -8.90624,-20.968753 z" clip-path="url(#clipPath3219)" style="fill:url(#linearGradient2198);fill-opacity:1;fill-rule:evenodd;stroke:none"/><text style="font-size:6.33634138px;font-style:normal;font-weight:400;fill:#87cdde;fill-opacity:1;stroke:none;font-family:DejaVu Sans Mono" id="text2529" x="550.833" y="319.344" clip-path="url(#clipPath3207)" xml:space="preserve"><tspan id="tspan2531" x="550.833" y="319.344">TM</tspan></text><rect style="opacity:0;fill:#f9f9f9;fill-opacity:1;stroke:#000;stroke-opacity:1" id="rect4155" width="207.5" height="202.5" x="81" y="4" ry="0" transform="translate(195.82871,53.894133)"/></g></svg>